<svg width="32" height="32" viewBox="0 0 32 32" fill="none" xmlns="http://www.w3.org/2000/svg">
<path stroke-width="0px" d="M14.6666 31.4533V26.6533C7.98663 26.3066 2.66663 20.76 2.66663 14C2.66663 7.01331 8.34663 1.33331 15.3333 1.33331C22.32 1.33331 28 7.01331 28 14C28 20.6 23.4133 27.24 16.5733 30.5333L14.6666 31.4533ZM15.3333 3.99998C9.81329 3.99998 5.33329 8.47998 5.33329 14C5.33329 19.52 9.81329 24 15.3333 24H17.3333V27.0666C22.1866 24 25.3333 18.96 25.3333 14C25.3333 8.47998 20.8533 3.99998 15.3333 3.99998ZM14 19.3333H16.6666V22H14V19.3333ZM16.6666 17.3333H14C14 13 18 13.3333 18 10.6666C18 9.19998 16.8 7.99998 15.3333 7.99998C13.8666 7.99998 12.6666 9.19998 12.6666 10.6666H9.99996C9.99996 7.71998 12.3866 5.33331 15.3333 5.33331C18.28 5.33331 20.6666 7.71998 20.6666 10.6666C20.6666 14 16.6666 14.3333 16.6666 17.3333Z" fill="black"/>
</svg>
