<svg width="16" height="16" viewBox="0 0 16 16" fill="none" xmlns="http://www.w3.org/2000/svg">
<g opacity="0.5" clip-path="url(#clip0_949_8550)">
<path fill-rule="evenodd" clip-rule="evenodd" d="M2 5.82863V15L5.25 15V10.7778C5.25 9.67323 6.14543 8.7778 7.25 8.7778H8.75C9.85457 8.7778 10.75 9.67323 10.75 10.7778V15L14 15V5.82863L8 1.2572L2 5.82863ZM1 15C1 15.5523 1.44772 16 2 16H5.25C5.80228 16 6.25 15.5523 6.25 15V10.7778C6.25 10.2255 6.69772 9.7778 7.25 9.7778H8.75C9.30228 9.7778 9.75 10.2255 9.75 10.7778V15C9.75 15.5523 10.1977 16 10.75 16H14C14.5523 16 15 15.5523 15 15V5.82863C15 5.51654 14.8543 5.22234 14.606 5.0332L8.60604 0.461771C8.24805 0.189013 7.75195 0.189013 7.39396 0.46177L1.39396 5.0332C1.14571 5.22234 1 5.51654 1 5.82863V15Z" fill="#192B3E"/>
</g>
<defs>
<clipPath id="clip0_949_8550">
<rect width="16" height="16" fill="white"/>
</clipPath>
</defs>
</svg>
