<svg width="32" height="32" viewBox="0 0 32 32" fill="none" xmlns="http://www.w3.org/2000/svg">
<path d="M14.3159 8.41616C15.1359 7.74766 16.2184 7.53612 17.0654 7.77887C17.4827 7.89846 17.835 8.12507 18.0841 8.45334C18.3319 8.78 18.5 9.23711 18.5 9.85723C18.5 10.5528 18.3296 10.9858 18.1072 11.2918C17.8756 11.6106 17.5581 11.835 17.1754 12.0705C17.1219 12.1035 17.0659 12.1373 17.0081 12.1721C16.6828 12.3682 16.3024 12.5975 16.0071 12.8972C15.6258 13.2842 15.375 13.7894 15.375 14.5V15.9519C15.375 16.2281 15.5989 16.4524 15.875 16.4524C16.1511 16.4524 16.375 16.2285 16.375 15.9524V14.5C16.375 14.0628 16.5148 13.8067 16.7194 13.599C16.9189 13.3966 17.1727 13.2425 17.5003 13.0437C17.5639 13.0051 17.6303 12.9648 17.6996 12.9221C18.0982 12.6768 18.5619 12.3674 18.9162 11.8796C19.2798 11.3792 19.5 10.733 19.5 9.85723C19.5 9.04871 19.2775 8.37185 18.8808 7.84894C18.4853 7.32762 17.9392 6.98904 17.3409 6.81757C16.1566 6.47818 14.7391 6.78098 13.6841 7.6411C13.47 7.81559 13.438 8.13055 13.6125 8.34457C13.787 8.5586 14.1019 8.59065 14.3159 8.41616Z" fill="black"/>
<path d="M16.375 19C16.375 18.7239 16.1511 18.5 15.875 18.5C15.5989 18.5 15.375 18.7239 15.375 19C15.375 19.2761 15.5989 19.5 15.875 19.5C16.1511 19.5 16.375 19.2761 16.375 19Z" fill="black"/>
<path fill-rule="evenodd" clip-rule="evenodd" d="M24.6827 21.5517C27.4291 17.3621 26.9714 13.1724 26.9714 13.1724C26.9714 7.00206 22.0529 2 15.9857 2C9.91846 2 5 7.00206 5 13.1724C5 19.3428 9.91846 24.3448 15.9857 24.3448C16.2301 24.3822 16.1834 24.6137 15.9857 24.9577C15.949 25.0215 15.9071 25.0892 15.861 25.1602C15.8282 25.2106 15.7933 25.2627 15.7565 25.3163L15.7386 25.3423C15.5929 25.553 15.4201 25.7859 15.2388 26.0302C14.4264 27.1249 13.446 28.446 14 29C15 30 21.9363 25.7414 24.6827 21.5517ZM16.1369 23.3563L16.0617 23.3448H15.9857C10.4866 23.3448 6 18.8064 6 13.1724C6 7.53839 10.4866 3 15.9857 3C21.4848 3 25.9714 7.53839 25.9714 13.1724V13.2269L25.977 13.2782L25.9772 13.2797L25.9794 13.3048C25.9814 13.3281 25.9843 13.3664 25.9874 13.4188C25.9935 13.5236 26 13.6841 26 13.8925C26 14.3097 25.9739 14.9156 25.8674 15.6468C25.6541 17.111 25.1213 19.0586 23.8464 21.0035C22.5755 22.9422 20.2757 24.9654 18.133 26.3891C17.067 27.0974 16.0863 27.6261 15.3426 27.9152C15.2513 27.9506 15.1665 27.9814 15.0879 28.0078C15.2671 27.6966 15.518 27.3375 15.8044 26.9473C15.8738 26.8527 15.9466 26.7547 16.0206 26.655C16.3123 26.2623 16.6236 25.8431 16.8229 25.507C16.9318 25.3234 17.1134 24.9982 17.1464 24.64C17.1654 24.4327 17.1445 24.1017 16.9099 23.7991C16.6742 23.495 16.3549 23.3897 16.1369 23.3563ZM14.4382 28.1463C14.4382 28.1463 14.4451 28.146 14.4565 28.1479C14.4435 28.1477 14.4382 28.1463 14.4382 28.1463Z" fill="black"/>
</svg>
