<svg width="16" height="18" viewBox="0 0 16 18" fill="none" xmlns="http://www.w3.org/2000/svg">
<path d="M0.5 15V7.5C0.5 6.71311 0.870486 5.97214 1.5 5.5L6.5 1.75C7.38889 1.08333 8.61111 1.08333 9.5 1.75L14.5 5.5C15.1295 5.97214 15.5 6.71311 15.5 7.5V15C15.5 16.3807 14.3807 17.5 13 17.5C11.6193 17.5 10.5 16.3807 10.5 15V13C10.5 11.6193 9.38071 10.5 8 10.5C6.61929 10.5 5.5 11.6193 5.5 13V15C5.5 16.3807 4.38071 17.5 3 17.5C1.61929 17.5 0.5 16.3807 0.5 15Z" stroke="#0D1B2A" stroke-opacity="0.5"/>
</svg>
