<svg width="16" height="16" viewBox="0 0 16 16" fill="none" xmlns="http://www.w3.org/2000/svg">
<path d="M3.54977 13.8433L3.55018 13.8438C3.79647 14.1227 4.08056 14.25 4.43337 14.25C5.00545 14.25 5.57189 14.2024 6.133 14.1071L6.21671 14.6L6.133 14.1071C6.74967 14.0024 7.37212 13.95 8.00004 13.95C8.62796 13.95 9.25041 14.0024 9.86708 14.1071C10.4282 14.2024 10.9946 14.25 11.5667 14.25C11.9195 14.25 12.204 14.1227 12.4508 13.8435C12.7068 13.5539 12.8334 13.2198 12.8334 12.8167C12.8334 12.3653 12.684 11.9792 12.3722 11.6365C11.9782 11.2039 11.5871 10.7769 11.1989 10.3554L11.1962 10.3525L11.1962 10.3525C10.8507 9.97125 10.5493 9.55968 10.2925 9.11809L10.2923 9.11774C10.0697 8.73427 9.81355 8.37716 9.52375 8.04596L9.5183 8.03972L9.51835 8.03968C9.31211 7.79594 9.07589 7.60202 8.8085 7.4545C8.56226 7.31864 8.29568 7.25004 8.00004 7.25004C7.71008 7.25004 7.44752 7.32133 7.2029 7.46472C6.93009 7.62465 6.69016 7.82669 6.48173 8.07301L6.47624 8.0795L6.47053 8.0858C6.17171 8.41554 5.9152 8.76709 5.70016 9.14062L3.54977 13.8433ZM3.54977 13.8433C3.29341 13.5537 3.16671 13.2196 3.16671 12.8167C3.16671 12.3654 3.31622 11.9794 3.62837 11.6367L3.62856 11.6365M3.54977 13.8433L3.62856 11.6365M3.62856 11.6365C4.02166 11.2044 4.41208 10.7779 4.79983 10.3569M3.62856 11.6365L4.79983 10.3569M4.79983 10.3569C5.14748 9.98504 5.44775 9.57952 5.70004 9.14082L4.79983 10.3569ZM3.00004 7.58337C2.6624 7.58337 2.39621 7.47244 2.17026 7.24649C1.94431 7.02053 1.83337 6.75434 1.83337 6.41671C1.83337 6.07907 1.94431 5.81288 2.17026 5.58693C2.39621 5.36097 2.6624 5.25004 3.00004 5.25004C3.33768 5.25004 3.60387 5.36097 3.82982 5.58693C4.05577 5.81288 4.16671 6.07907 4.16671 6.41671C4.16671 6.75434 4.05577 7.02053 3.82982 7.24649C3.60387 7.47244 3.33768 7.58337 3.00004 7.58337ZM6.00004 4.91671C5.6624 4.91671 5.39621 4.80577 5.17026 4.57982C4.94431 4.35387 4.83337 4.08768 4.83337 3.75004C4.83337 3.4124 4.94431 3.14621 5.17026 2.92026C5.39621 2.69431 5.6624 2.58337 6.00004 2.58337C6.33768 2.58337 6.60387 2.69431 6.82982 2.92026C7.05577 3.14621 7.16671 3.4124 7.16671 3.75004C7.16671 4.08768 7.05577 4.35387 6.82982 4.57982C6.60387 4.80577 6.33768 4.91671 6.00004 4.91671ZM10 4.91671C9.6624 4.91671 9.39621 4.80577 9.17026 4.57982C8.94431 4.35387 8.83337 4.08768 8.83337 3.75004C8.83337 3.4124 8.94431 3.14621 9.17026 2.92026C9.39621 2.69431 9.6624 2.58337 10 2.58337C10.3377 2.58337 10.6039 2.69431 10.8298 2.92026C11.0558 3.14621 11.1667 3.41241 11.1667 3.75004C11.1667 4.08768 11.0558 4.35387 10.8298 4.57982C10.6039 4.80577 10.3377 4.91671 10 4.91671ZM13 7.58337C12.6624 7.58337 12.3962 7.47244 12.1703 7.24649C11.9443 7.02053 11.8334 6.75434 11.8334 6.41671C11.8334 6.07907 11.9443 5.81288 12.1703 5.58693C12.3962 5.36097 12.6624 5.25004 13 5.25004C13.3377 5.25004 13.6039 5.36097 13.8298 5.58693C14.0558 5.81288 14.1667 6.07907 14.1667 6.41671C14.1667 6.75434 14.0558 7.02053 13.8298 7.24649C13.6039 7.47244 13.3377 7.58337 13 7.58337Z" stroke="#0D1B2A" stroke-opacity="0.5"/>
</svg>
