<svg width="16" height="16" viewBox="0 0 16 16" fill="none" xmlns="http://www.w3.org/2000/svg">
<g opacity="0.5">
<mask id="path-1-inside-1_949_8542" fill="white">
<path fill-rule="evenodd" clip-rule="evenodd" d="M4.63015 6.04867C4.65444 6.1659 4.66659 6.28858 4.66659 6.41671C4.66659 6.88337 4.50547 7.27782 4.18325 7.60004C3.86103 7.92226 3.46659 8.08337 2.99992 8.08337C2.53325 8.08337 2.13881 7.92226 1.81659 7.60004C1.49436 7.27782 1.33325 6.88337 1.33325 6.41671C1.33325 5.95004 1.49436 5.5556 1.81659 5.23337C2.13881 4.91115 2.53325 4.75004 2.99992 4.75004C3.19799 4.75004 3.38305 4.77906 3.5551 4.83711C3.78841 4.91583 3.99779 5.04792 4.18325 5.23337C4.2402 5.29032 4.29211 5.34952 4.33899 5.41097C4.48455 5.60179 4.58161 5.81435 4.63015 6.04867ZM2.52369 6.89293C2.65338 7.02262 2.79131 7.08337 2.99992 7.08337C3.20852 7.08337 3.34646 7.02262 3.47615 6.89293C3.60583 6.76325 3.66659 6.62531 3.66659 6.41671C3.66659 6.2081 3.60583 6.07017 3.47615 5.94048C3.34646 5.8108 3.20852 5.75004 2.99992 5.75004C2.79131 5.75004 2.65338 5.8108 2.52369 5.94048C2.39401 6.07017 2.33325 6.2081 2.33325 6.41671C2.33325 6.62531 2.39401 6.76325 2.52369 6.89293Z"/>
<path fill-rule="evenodd" clip-rule="evenodd" d="M7.66659 3.75004C7.66659 4.05711 7.59683 4.3329 7.45732 4.57743C7.38481 4.70452 7.29345 4.82317 7.18325 4.93337C6.86103 5.2556 6.46659 5.41671 5.99992 5.41671C5.80185 5.41671 5.61679 5.38768 5.44474 5.32964C5.21143 5.25092 5.00204 5.11883 4.81659 4.93337C4.75964 4.87643 4.70773 4.81723 4.66085 4.75578C4.51528 4.56496 4.41823 4.35239 4.36969 4.11808C4.3454 4.00085 4.33325 3.87817 4.33325 3.75004C4.33325 3.28337 4.49436 2.88893 4.81659 2.56671C5.13881 2.24449 5.53325 2.08337 5.99992 2.08337C6.46659 2.08337 6.86103 2.24449 7.18325 2.56671C7.29345 2.67691 7.38481 2.79556 7.45732 2.92265C7.59683 3.16718 7.66659 3.44298 7.66659 3.75004ZM5.52369 4.22627C5.65338 4.35595 5.79131 4.41671 5.99992 4.41671C6.20852 4.41671 6.34646 4.35595 6.47614 4.22627C6.60583 4.09658 6.66659 3.95865 6.66659 3.75004C6.66659 3.54144 6.60583 3.4035 6.47614 3.27381C6.34646 3.14413 6.20852 3.08337 5.99992 3.08337C5.79131 3.08337 5.65338 3.14413 5.52369 3.27381C5.39401 3.4035 5.33325 3.54143 5.33325 3.75004C5.33325 3.95865 5.39401 4.09658 5.52369 4.22627Z"/>
<path fill-rule="evenodd" clip-rule="evenodd" d="M11.6666 3.75004C11.6666 3.87816 11.6544 4.00085 11.6301 4.11808C11.5816 4.3524 11.4846 4.56496 11.339 4.75578C11.2921 4.81723 11.2402 4.87643 11.1833 4.93337C10.9978 5.11883 10.7884 5.25092 10.5551 5.32964C10.3831 5.38768 10.198 5.41671 9.99992 5.41671C9.53325 5.41671 9.13881 5.2556 8.81659 4.93337C8.70638 4.82317 8.61503 4.70452 8.54252 4.57743C8.40301 4.3329 8.33325 4.05711 8.33325 3.75004C8.33325 3.44298 8.40301 3.16718 8.54252 2.92265C8.61503 2.79556 8.70638 2.67691 8.81659 2.56671C9.13881 2.24449 9.53325 2.08337 9.99992 2.08337C10.4666 2.08337 10.861 2.24449 11.1833 2.56671C11.5055 2.88893 11.6666 3.28337 11.6666 3.75004ZM9.52369 4.22627C9.65338 4.35595 9.79131 4.41671 9.99992 4.41671C10.2085 4.41671 10.3465 4.35595 10.4761 4.22627C10.6058 4.09658 10.6666 3.95865 10.6666 3.75004C10.6666 3.54144 10.6058 3.4035 10.4761 3.27381C10.3465 3.14413 10.2085 3.08337 9.99992 3.08337C9.79131 3.08337 9.65338 3.14413 9.52369 3.27381C9.39401 3.4035 9.33325 3.54144 9.33325 3.75004C9.33325 3.95865 9.39401 4.09658 9.52369 4.22627Z"/>
<path fill-rule="evenodd" clip-rule="evenodd" d="M12.4447 4.83711C12.6168 4.77906 12.8018 4.75004 12.9999 4.75004C13.4666 4.75004 13.861 4.91115 14.1833 5.23337C14.5055 5.5556 14.6666 5.95004 14.6666 6.41671C14.6666 6.88337 14.5055 7.27782 14.1833 7.60004C13.861 7.92226 13.4666 8.08337 12.9999 8.08337C12.5333 8.08337 12.1388 7.92226 11.8166 7.60004C11.4944 7.27782 11.3333 6.88337 11.3333 6.41671C11.3333 6.28858 11.3454 6.1659 11.3697 6.04866C11.4182 5.81435 11.5153 5.60179 11.6608 5.41097C11.7077 5.34952 11.7596 5.29032 11.8166 5.23337C12.002 5.04792 12.2114 4.91583 12.4447 4.83711ZM12.5237 6.89293C12.6534 7.02262 12.7913 7.08337 12.9999 7.08337C13.2085 7.08337 13.3465 7.02262 13.4761 6.89293C13.6058 6.76325 13.6666 6.62531 13.6666 6.41671C13.6666 6.2081 13.6058 6.07017 13.4761 5.94048C13.3465 5.81079 13.2085 5.75004 12.9999 5.75004C12.7913 5.75004 12.6534 5.81079 12.5237 5.94048C12.394 6.07017 12.3333 6.2081 12.3333 6.41671C12.3333 6.62531 12.394 6.76325 12.5237 6.89293Z"/>
<path fill-rule="evenodd" clip-rule="evenodd" d="M5.26659 8.89137C5.49992 8.48604 5.7777 8.1056 6.09992 7.75004C6.34436 7.46115 6.6277 7.22226 6.94992 7.03337C7.27214 6.84449 7.62214 6.75004 7.99992 6.75004C8.3777 6.75004 8.7277 6.83893 9.04992 7.01671C9.37214 7.19449 9.65547 7.42782 9.89992 7.71671C10.211 8.07226 10.4859 8.4556 10.7246 8.86671C10.9637 9.27782 11.2444 9.66115 11.5666 10.0167C11.9555 10.4389 12.3473 10.8667 12.7419 11.3C13.1361 11.7334 13.3333 12.2389 13.3333 12.8167C13.3333 13.3389 13.1639 13.7916 12.8253 14.1747C12.4861 14.5583 12.0666 14.75 11.5666 14.75C10.9666 14.75 10.3721 14.7 9.78325 14.6C9.19436 14.5 8.59992 14.45 7.99992 14.45C7.39992 14.45 6.80547 14.5 6.21659 14.6C5.6277 14.7 5.03325 14.75 4.43325 14.75C3.93325 14.75 3.51392 14.5583 3.17525 14.1747C2.83614 13.7916 2.66659 13.3389 2.66659 12.8167C2.66659 12.2389 2.86392 11.7334 3.25859 11.3C3.65281 10.8667 4.04436 10.4389 4.43325 10.0167C4.75547 9.67226 5.03325 9.29715 5.26659 8.89137ZM3.92486 13.5128L3.92405 13.5119C3.75044 13.3158 3.66659 13.1003 3.66659 12.8167C3.66659 12.492 3.76828 12.2255 3.99791 11.9734C4.38993 11.5425 4.77965 11.1167 5.1663 10.6969C5.53932 10.2977 5.86204 9.86184 6.13325 9.39027C6.34093 9.0295 6.59541 8.71258 6.86331 8.39598C7.03571 8.19223 7.23224 8.02703 7.45564 7.89607C7.62265 7.79817 7.79778 7.75004 7.99992 7.75004C8.21342 7.75004 8.39659 7.79835 8.56684 7.89228C8.77939 8.00955 8.96849 8.16406 9.13653 8.36265L9.14189 8.36898L9.14734 8.37521C9.41583 8.68205 9.65319 9.01295 9.85976 9.36878C10.1343 9.84084 10.4569 10.2814 10.8256 10.6882L10.831 10.6942C11.2186 11.115 11.6092 11.5414 12.0026 11.9734C12.2316 12.2253 12.3333 12.4918 12.3333 12.8167C12.3333 13.1006 12.2493 13.3163 12.076 13.5124C11.9216 13.6871 11.7722 13.75 11.5666 13.75C11.0224 13.75 10.484 13.7047 9.95067 13.6142C9.30622 13.5047 8.65577 13.45 7.99992 13.45C7.34407 13.45 6.69362 13.5047 6.04917 13.6142C5.51584 13.7047 4.9774 13.75 4.43325 13.75C4.22762 13.75 4.07877 13.6871 3.92486 13.5128Z"/>
</mask>
<path fill-rule="evenodd" clip-rule="evenodd" d="M4.63015 6.04867C4.65444 6.1659 4.66659 6.28858 4.66659 6.41671C4.66659 6.88337 4.50547 7.27782 4.18325 7.60004C3.86103 7.92226 3.46659 8.08337 2.99992 8.08337C2.53325 8.08337 2.13881 7.92226 1.81659 7.60004C1.49436 7.27782 1.33325 6.88337 1.33325 6.41671C1.33325 5.95004 1.49436 5.5556 1.81659 5.23337C2.13881 4.91115 2.53325 4.75004 2.99992 4.75004C3.19799 4.75004 3.38305 4.77906 3.5551 4.83711C3.78841 4.91583 3.99779 5.04792 4.18325 5.23337C4.2402 5.29032 4.29211 5.34952 4.33899 5.41097C4.48455 5.60179 4.58161 5.81435 4.63015 6.04867ZM2.52369 6.89293C2.65338 7.02262 2.79131 7.08337 2.99992 7.08337C3.20852 7.08337 3.34646 7.02262 3.47615 6.89293C3.60583 6.76325 3.66659 6.62531 3.66659 6.41671C3.66659 6.2081 3.60583 6.07017 3.47615 5.94048C3.34646 5.8108 3.20852 5.75004 2.99992 5.75004C2.79131 5.75004 2.65338 5.8108 2.52369 5.94048C2.39401 6.07017 2.33325 6.2081 2.33325 6.41671C2.33325 6.62531 2.39401 6.76325 2.52369 6.89293Z" fill="#D9D9D9"/>
<path fill-rule="evenodd" clip-rule="evenodd" d="M7.66659 3.75004C7.66659 4.05711 7.59683 4.3329 7.45732 4.57743C7.38481 4.70452 7.29345 4.82317 7.18325 4.93337C6.86103 5.2556 6.46659 5.41671 5.99992 5.41671C5.80185 5.41671 5.61679 5.38768 5.44474 5.32964C5.21143 5.25092 5.00204 5.11883 4.81659 4.93337C4.75964 4.87643 4.70773 4.81723 4.66085 4.75578C4.51528 4.56496 4.41823 4.35239 4.36969 4.11808C4.3454 4.00085 4.33325 3.87817 4.33325 3.75004C4.33325 3.28337 4.49436 2.88893 4.81659 2.56671C5.13881 2.24449 5.53325 2.08337 5.99992 2.08337C6.46659 2.08337 6.86103 2.24449 7.18325 2.56671C7.29345 2.67691 7.38481 2.79556 7.45732 2.92265C7.59683 3.16718 7.66659 3.44298 7.66659 3.75004ZM5.52369 4.22627C5.65338 4.35595 5.79131 4.41671 5.99992 4.41671C6.20852 4.41671 6.34646 4.35595 6.47614 4.22627C6.60583 4.09658 6.66659 3.95865 6.66659 3.75004C6.66659 3.54144 6.60583 3.4035 6.47614 3.27381C6.34646 3.14413 6.20852 3.08337 5.99992 3.08337C5.79131 3.08337 5.65338 3.14413 5.52369 3.27381C5.39401 3.4035 5.33325 3.54143 5.33325 3.75004C5.33325 3.95865 5.39401 4.09658 5.52369 4.22627Z" fill="#D9D9D9"/>
<path fill-rule="evenodd" clip-rule="evenodd" d="M11.6666 3.75004C11.6666 3.87816 11.6544 4.00085 11.6301 4.11808C11.5816 4.3524 11.4846 4.56496 11.339 4.75578C11.2921 4.81723 11.2402 4.87643 11.1833 4.93337C10.9978 5.11883 10.7884 5.25092 10.5551 5.32964C10.3831 5.38768 10.198 5.41671 9.99992 5.41671C9.53325 5.41671 9.13881 5.2556 8.81659 4.93337C8.70638 4.82317 8.61503 4.70452 8.54252 4.57743C8.40301 4.3329 8.33325 4.05711 8.33325 3.75004C8.33325 3.44298 8.40301 3.16718 8.54252 2.92265C8.61503 2.79556 8.70638 2.67691 8.81659 2.56671C9.13881 2.24449 9.53325 2.08337 9.99992 2.08337C10.4666 2.08337 10.861 2.24449 11.1833 2.56671C11.5055 2.88893 11.6666 3.28337 11.6666 3.75004ZM9.52369 4.22627C9.65338 4.35595 9.79131 4.41671 9.99992 4.41671C10.2085 4.41671 10.3465 4.35595 10.4761 4.22627C10.6058 4.09658 10.6666 3.95865 10.6666 3.75004C10.6666 3.54144 10.6058 3.4035 10.4761 3.27381C10.3465 3.14413 10.2085 3.08337 9.99992 3.08337C9.79131 3.08337 9.65338 3.14413 9.52369 3.27381C9.39401 3.4035 9.33325 3.54144 9.33325 3.75004C9.33325 3.95865 9.39401 4.09658 9.52369 4.22627Z" fill="#D9D9D9"/>
<path fill-rule="evenodd" clip-rule="evenodd" d="M12.4447 4.83711C12.6168 4.77906 12.8018 4.75004 12.9999 4.75004C13.4666 4.75004 13.861 4.91115 14.1833 5.23337C14.5055 5.5556 14.6666 5.95004 14.6666 6.41671C14.6666 6.88337 14.5055 7.27782 14.1833 7.60004C13.861 7.92226 13.4666 8.08337 12.9999 8.08337C12.5333 8.08337 12.1388 7.92226 11.8166 7.60004C11.4944 7.27782 11.3333 6.88337 11.3333 6.41671C11.3333 6.28858 11.3454 6.1659 11.3697 6.04866C11.4182 5.81435 11.5153 5.60179 11.6608 5.41097C11.7077 5.34952 11.7596 5.29032 11.8166 5.23337C12.002 5.04792 12.2114 4.91583 12.4447 4.83711ZM12.5237 6.89293C12.6534 7.02262 12.7913 7.08337 12.9999 7.08337C13.2085 7.08337 13.3465 7.02262 13.4761 6.89293C13.6058 6.76325 13.6666 6.62531 13.6666 6.41671C13.6666 6.2081 13.6058 6.07017 13.4761 5.94048C13.3465 5.81079 13.2085 5.75004 12.9999 5.75004C12.7913 5.75004 12.6534 5.81079 12.5237 5.94048C12.394 6.07017 12.3333 6.2081 12.3333 6.41671C12.3333 6.62531 12.394 6.76325 12.5237 6.89293Z" fill="#D9D9D9"/>
<path fill-rule="evenodd" clip-rule="evenodd" d="M5.26659 8.89137C5.49992 8.48604 5.7777 8.1056 6.09992 7.75004C6.34436 7.46115 6.6277 7.22226 6.94992 7.03337C7.27214 6.84449 7.62214 6.75004 7.99992 6.75004C8.3777 6.75004 8.7277 6.83893 9.04992 7.01671C9.37214 7.19449 9.65547 7.42782 9.89992 7.71671C10.211 8.07226 10.4859 8.4556 10.7246 8.86671C10.9637 9.27782 11.2444 9.66115 11.5666 10.0167C11.9555 10.4389 12.3473 10.8667 12.7419 11.3C13.1361 11.7334 13.3333 12.2389 13.3333 12.8167C13.3333 13.3389 13.1639 13.7916 12.8253 14.1747C12.4861 14.5583 12.0666 14.75 11.5666 14.75C10.9666 14.75 10.3721 14.7 9.78325 14.6C9.19436 14.5 8.59992 14.45 7.99992 14.45C7.39992 14.45 6.80547 14.5 6.21659 14.6C5.6277 14.7 5.03325 14.75 4.43325 14.75C3.93325 14.75 3.51392 14.5583 3.17525 14.1747C2.83614 13.7916 2.66659 13.3389 2.66659 12.8167C2.66659 12.2389 2.86392 11.7334 3.25859 11.3C3.65281 10.8667 4.04436 10.4389 4.43325 10.0167C4.75547 9.67226 5.03325 9.29715 5.26659 8.89137ZM3.92486 13.5128L3.92405 13.5119C3.75044 13.3158 3.66659 13.1003 3.66659 12.8167C3.66659 12.492 3.76828 12.2255 3.99791 11.9734C4.38993 11.5425 4.77965 11.1167 5.1663 10.6969C5.53932 10.2977 5.86204 9.86184 6.13325 9.39027C6.34093 9.0295 6.59541 8.71258 6.86331 8.39598C7.03571 8.19223 7.23224 8.02703 7.45564 7.89607C7.62265 7.79817 7.79778 7.75004 7.99992 7.75004C8.21342 7.75004 8.39659 7.79835 8.56684 7.89228C8.77939 8.00955 8.96849 8.16406 9.13653 8.36265L9.14189 8.36898L9.14734 8.37521C9.41583 8.68205 9.65319 9.01295 9.85976 9.36878C10.1343 9.84084 10.4569 10.2814 10.8256 10.6882L10.831 10.6942C11.2186 11.115 11.6092 11.5414 12.0026 11.9734C12.2316 12.2253 12.3333 12.4918 12.3333 12.8167C12.3333 13.1006 12.2493 13.3163 12.076 13.5124C11.9216 13.6871 11.7722 13.75 11.5666 13.75C11.0224 13.75 10.484 13.7047 9.95067 13.6142C9.30622 13.5047 8.65577 13.45 7.99992 13.45C7.34407 13.45 6.69362 13.5047 6.04917 13.6142C5.51584 13.7047 4.9774 13.75 4.43325 13.75C4.22762 13.75 4.07877 13.6871 3.92486 13.5128Z" fill="#D9D9D9"/>
<path d="M4.36673 12.311L5.53513 11.0345L4.79748 10.3593L3.62908 11.6358L4.36673 12.311ZM3.92486 13.5128L4.67447 12.8509L4.67372 12.8501L3.92486 13.5128ZM3.92405 13.5119L4.67291 12.8492L4.67285 12.8491L3.92405 13.5119ZM6.04917 13.6142L5.88176 12.6283L5.88176 12.6283L6.04917 13.6142ZM9.95067 13.6142L10.1181 12.6283L10.1181 12.6283L9.95067 13.6142ZM12.076 13.5124L12.8252 14.1748L12.8253 14.1747L12.076 13.5124ZM3.99791 11.9734L4.73723 12.6467L4.73761 12.6463L3.99791 11.9734ZM11.6301 4.11808L10.6509 3.91521L10.6509 3.91522L11.6301 4.11808ZM11.1833 2.56671L11.8904 1.8596L11.8904 1.8596L11.1833 2.56671ZM8.81659 2.56671L8.10948 1.8596L8.10948 1.8596L8.81659 2.56671ZM8.54252 2.92265L7.67394 2.42711L7.67394 2.42711L8.54252 2.92265ZM8.54252 4.57743L7.67394 5.07298L7.67394 5.07298L8.54252 4.57743ZM10.5551 5.32964L10.8748 6.27716L10.8748 6.27716L10.5551 5.32964ZM11.1833 4.93337L10.4761 4.22627L10.4761 4.22627L11.1833 4.93337ZM11.339 4.75578L12.1341 5.36229L12.1341 5.36229L11.339 4.75578ZM7.45732 4.57743L8.3259 5.07298L8.3259 5.07298L7.45732 4.57743ZM7.45732 2.92265L8.3259 2.42711L8.3259 2.42711L7.45732 2.92265ZM7.18325 2.56671L7.89036 1.8596L7.89036 1.8596L7.18325 2.56671ZM4.36969 4.11808L5.34889 3.91521L5.34889 3.91521L4.36969 4.11808ZM4.66085 4.75578L3.86578 5.36229L3.86578 5.36229L4.66085 4.75578ZM5.44474 5.32964L5.12505 6.27716L5.12505 6.27716L5.44474 5.32964ZM4.63015 6.04867L3.65095 6.25154L3.65095 6.25154L4.63015 6.04867ZM1.81659 7.60004L1.10948 8.30715L1.10948 8.30715L1.81659 7.60004ZM1.81659 5.23337L1.10948 4.52627L1.10948 4.52627L1.81659 5.23337ZM3.5551 4.83711L3.87478 3.88959L3.87478 3.88959L3.5551 4.83711ZM4.33899 5.41097L5.13406 4.80445L5.13406 4.80445L4.33899 5.41097ZM5.26659 8.89137L4.39993 8.39247L4.39969 8.39289L5.26659 8.89137ZM6.09992 7.75004L6.84091 8.42156L6.85232 8.40896L6.8633 8.39598L6.09992 7.75004ZM4.43325 10.0167L3.70296 9.33353L3.69771 9.33923L4.43325 10.0167ZM3.25859 11.3L3.99791 11.9734L3.99829 11.973L3.25859 11.3ZM3.17525 14.1747L3.92486 13.5128L3.92405 13.5119L3.17525 14.1747ZM6.21659 14.6L6.04917 13.6142L6.04917 13.6142L6.21659 14.6ZM9.78325 14.6L9.95067 13.6142L9.95067 13.6142L9.78325 14.6ZM12.8253 14.1747L13.5744 14.8371L13.5745 14.837L12.8253 14.1747ZM12.7419 11.3L13.4816 10.6271L13.4812 10.6267L12.7419 11.3ZM11.5666 10.0167L10.8256 10.6882L10.831 10.6942L11.5666 10.0167ZM10.7246 8.86671L9.85976 9.36878L9.86016 9.36947L10.7246 8.86671ZM9.89992 7.71671L9.13653 8.36265L9.14189 8.36898L9.14734 8.37521L9.89992 7.71671ZM9.04992 7.01671L9.533 6.14113L9.533 6.14113L9.04992 7.01671ZM5.1663 10.6969L4.43563 10.0141L4.43075 10.0194L5.1663 10.6969ZM6.13325 9.39027L5.26659 8.89137L5.26638 8.89173L6.13325 9.39027ZM6.86331 8.39598L7.62668 9.04193L7.62669 9.04192L6.86331 8.39598ZM7.45564 7.89607L7.96136 8.75877L7.96136 8.75877L7.45564 7.89607ZM8.56684 7.89228L8.08376 8.76786L8.08376 8.76786L8.56684 7.89228ZM9.13653 8.36265L8.37315 9.00859L8.37315 9.00859L9.13653 8.36265ZM9.14189 8.36898L8.3785 9.01492L8.38385 9.02124L8.38931 9.02748L9.14189 8.36898ZM9.14734 8.37521L8.39476 9.03371L8.39477 9.03372L9.14734 8.37521ZM9.85976 9.36878L8.99493 9.87084L8.99534 9.87154L9.85976 9.36878ZM10.8256 10.6882L10.0846 11.3598L10.0873 11.3627L10.8256 10.6882ZM10.831 10.6942L10.0927 11.3687L10.0955 11.3717L10.831 10.6942ZM12.0026 11.9734L12.7425 11.3007L12.7419 11.3L12.0026 11.9734ZM12.4447 4.83711L12.7644 5.78464L12.7644 5.78464L12.4447 4.83711ZM14.1833 5.23337L14.8904 4.52627L14.8904 4.52627L14.1833 5.23337ZM14.1833 7.60004L14.8904 8.30715L14.8904 8.30715L14.1833 7.60004ZM11.8166 7.60004L11.1095 8.30715L11.1095 8.30715L11.8166 7.60004ZM11.3697 6.04866L12.3489 6.25154L12.3489 6.25153L11.3697 6.04866ZM11.6608 5.41097L10.8658 4.80445L10.8658 4.80446L11.6608 5.41097ZM11.8166 5.23337L12.5237 5.94048L12.5237 5.94048L11.8166 5.23337ZM2.52369 6.89293L3.2308 6.18583L3.2308 6.18583L2.52369 6.89293ZM3.47615 6.89293L2.76904 6.18583L2.76904 6.18583L3.47615 6.89293ZM3.47615 5.94048L4.18325 5.23337L4.18325 5.23337L3.47615 5.94048ZM2.52369 5.94048L1.81659 5.23337L1.81659 5.23337L2.52369 5.94048ZM5.52369 4.22627L4.81658 4.93337L4.81659 4.93337L5.52369 4.22627ZM6.47614 4.22627L5.76904 3.51916L5.76904 3.51916L6.47614 4.22627ZM6.47614 3.27381L5.76904 3.98092L5.76904 3.98092L6.47614 3.27381ZM5.52369 3.27381L4.81659 2.56671L4.81658 2.56671L5.52369 3.27381ZM9.52369 4.22627L10.2308 3.51916L10.2308 3.51916L9.52369 4.22627ZM10.4761 4.22627L9.76904 3.51916L9.76904 3.51916L10.4761 4.22627ZM10.4761 3.27381L9.76904 3.98092L9.76904 3.98092L10.4761 3.27381ZM9.52369 3.27381L10.2308 3.98092L10.2308 3.98092L9.52369 3.27381ZM12.5237 6.89293L13.2308 6.18583L13.2308 6.18583L12.5237 6.89293ZM13.4761 5.94048L12.769 6.64759L12.769 6.64759L13.4761 5.94048ZM12.5237 5.94048L13.2308 6.64759L13.2308 6.64759L12.5237 5.94048ZM4.67372 12.8501L4.67291 12.8492L3.17519 14.1746L3.17601 14.1756L4.67372 12.8501ZM4.43325 12.75C4.43255 12.75 4.44856 12.75 4.47575 12.7551C4.50437 12.7606 4.53883 12.7706 4.57504 12.7872C4.65146 12.8221 4.68422 12.862 4.67447 12.8509L3.17525 14.1747C3.31941 14.338 3.50355 14.4965 3.74428 14.6064C3.98719 14.7174 4.22474 14.75 4.43325 14.75V12.75ZM5.88176 12.6283C5.40398 12.7094 4.92155 12.75 4.43325 12.75V14.75C5.03325 14.75 5.6277 14.7 6.21659 14.6L5.88176 12.6283ZM7.99992 12.45C7.28822 12.45 6.58176 12.5094 5.88176 12.6283L6.21658 14.6C6.80547 14.5 7.39992 14.45 7.99992 14.45V12.45ZM10.1181 12.6283C9.41808 12.5094 8.71162 12.45 7.99992 12.45V14.45C8.59992 14.45 9.19436 14.5 9.78325 14.6L10.1181 12.6283ZM11.5666 12.75C11.0783 12.75 10.5959 12.7094 10.1181 12.6283L9.78325 14.6C10.3721 14.7 10.9666 14.75 11.5666 14.75V12.75ZM11.3269 12.85C11.3169 12.8613 11.3494 12.8216 11.4254 12.787C11.4614 12.7705 11.4957 12.7606 11.5242 12.7551C11.5513 12.75 11.5673 12.75 11.5666 12.75V14.75C11.7752 14.75 12.0127 14.7173 12.2556 14.6065C12.4963 14.4967 12.6807 14.3382 12.8252 14.1748L11.3269 12.85ZM4.66659 12.8167C4.66659 12.7621 4.67448 12.7397 4.67773 12.7313C4.68119 12.7225 4.69282 12.6955 4.73723 12.6467L3.25859 11.3C2.8638 11.7335 2.66659 12.2391 2.66659 12.8167H4.66659ZM4.67285 12.8491C4.66333 12.8384 4.66055 12.8336 4.66119 12.8346C4.66205 12.836 4.66439 12.8402 4.66661 12.8461C4.6688 12.852 4.66909 12.8548 4.66867 12.8522C4.66817 12.8493 4.66659 12.8382 4.66659 12.8167H2.66659C2.66659 13.3392 2.83633 13.7918 3.17525 14.1747L4.67285 12.8491ZM10.6666 3.75004C10.6666 3.81472 10.6605 3.86918 10.6509 3.91521L12.6094 4.32096C12.6484 4.13252 12.6666 3.94161 12.6666 3.75004H10.6666ZM10.4761 3.27381C10.6058 3.4035 10.6666 3.54144 10.6666 3.75004H12.6666C12.6666 3.02531 12.4051 2.37436 11.8904 1.8596L10.4761 3.27381ZM9.99992 3.08337C10.2085 3.08337 10.3465 3.14413 10.4761 3.27381L11.8904 1.8596C11.3756 1.34484 10.7246 1.08337 9.99992 1.08337V3.08337ZM9.52369 3.27381C9.65338 3.14413 9.79131 3.08337 9.99992 3.08337V1.08337C9.27519 1.08337 8.62424 1.34484 8.10948 1.8596L9.52369 3.27381ZM9.4111 3.4182C9.43667 3.37337 9.47241 3.32509 9.52369 3.27381L8.10948 1.8596C7.94036 2.02872 7.79338 2.21774 7.67394 2.42711L9.4111 3.4182ZM9.33325 3.75004C9.33325 3.60056 9.36541 3.49829 9.4111 3.4182L7.67394 2.42711C7.44061 2.83608 7.33325 3.2854 7.33325 3.75004H9.33325ZM9.4111 4.08188C9.36541 4.0018 9.33325 3.89953 9.33325 3.75004H7.33325C7.33325 4.21468 7.44061 4.66401 7.67394 5.07298L9.4111 4.08188ZM9.52369 4.22627C9.47241 4.17499 9.43667 4.12671 9.4111 4.08188L7.67394 5.07298C7.79338 5.28234 7.94036 5.47136 8.10948 5.64048L9.52369 4.22627ZM9.99992 4.41671C9.79131 4.41671 9.65338 4.35595 9.52369 4.22627L8.10948 5.64048C8.62424 6.15524 9.27519 6.41671 9.99992 6.41671V4.41671ZM10.2354 4.38211C10.1753 4.40239 10.0991 4.41671 9.99992 4.41671V6.41671C10.2969 6.41671 10.5908 6.37297 10.8748 6.27716L10.2354 4.38211ZM10.4761 4.22627C10.3923 4.31009 10.3134 4.35582 10.2354 4.38211L10.8748 6.27716C11.2635 6.14603 11.6033 5.92758 11.8904 5.64048L10.4761 4.22627ZM10.5439 4.14926C10.5252 4.17382 10.5029 4.19955 10.4761 4.22627L11.8904 5.64048C11.9775 5.55331 12.059 5.46064 12.1341 5.36229L10.5439 4.14926ZM10.6509 3.91522C10.6329 4.00244 10.5989 4.07714 10.5439 4.14926L12.1341 5.36229C12.3702 5.05277 12.5303 4.70235 12.6094 4.32095L10.6509 3.91522ZM6.66659 3.75004C6.66659 3.89953 6.63443 4.0018 6.58874 4.08188L8.3259 5.07298C8.55923 4.66401 8.66659 4.21468 8.66659 3.75004H6.66659ZM6.58874 3.4182C6.63443 3.49829 6.66659 3.60056 6.66659 3.75004H8.66659C8.66659 3.2854 8.55923 2.83608 8.3259 2.42711L6.58874 3.4182ZM6.47615 3.27381C6.52742 3.32509 6.56316 3.37337 6.58874 3.4182L8.3259 2.42711C8.20646 2.21774 8.05948 2.02872 7.89036 1.8596L6.47615 3.27381ZM5.99992 3.08337C6.20852 3.08337 6.34646 3.14413 6.47615 3.27381L7.89036 1.8596C7.3756 1.34484 6.72465 1.08337 5.99992 1.08337V3.08337ZM5.52369 3.27381C5.65338 3.14413 5.79131 3.08337 5.99992 3.08337V1.08337C5.27519 1.08337 4.62424 1.34484 4.10948 1.8596L5.52369 3.27381ZM5.33325 3.75004C5.33325 3.54143 5.39401 3.4035 5.52369 3.27381L4.10948 1.8596C3.59472 2.37436 3.33325 3.02531 3.33325 3.75004H5.33325ZM5.34889 3.91521C5.33936 3.8692 5.33325 3.81474 5.33325 3.75004H3.33325C3.33325 3.94159 3.35144 4.1325 3.39048 4.32095L5.34889 3.91521ZM5.45592 4.14926C5.4009 4.07714 5.36696 4.00243 5.34889 3.91521L3.39048 4.32095C3.4695 4.70236 3.62967 5.05278 3.86578 5.36229L5.45592 4.14926ZM5.52369 4.22627C5.49697 4.19955 5.47465 4.17382 5.45592 4.14926L3.86578 5.36229C3.94081 5.46065 4.02231 5.55332 4.10948 5.64048L5.52369 4.22627ZM5.76442 4.38211C5.68648 4.35582 5.60751 4.31009 5.52369 4.22627L4.10948 5.64048C4.39657 5.92758 4.73638 6.14603 5.12505 6.27716L5.76442 4.38211ZM5.99992 4.41671C5.90071 4.41671 5.82454 4.40239 5.76442 4.38211L5.12505 6.27716C5.40904 6.37297 5.70299 6.41671 5.99992 6.41671V4.41671ZM6.47615 4.22627C6.34646 4.35595 6.20852 4.41671 5.99992 4.41671V6.41671C6.72465 6.41671 7.3756 6.15524 7.89036 5.64048L6.47615 4.22627ZM6.58874 4.08188C6.56316 4.12671 6.52742 4.17499 6.47615 4.22627L7.89036 5.64048C8.05948 5.47136 8.20646 5.28234 8.3259 5.07298L6.58874 4.08188ZM3.65095 6.25154C3.66048 6.29755 3.66659 6.352 3.66659 6.41671H5.66659C5.66659 6.22516 5.6484 6.03425 5.60936 5.8458L3.65095 6.25154ZM3.66659 6.41671C3.66659 6.62531 3.60583 6.76325 3.47615 6.89293L4.89036 8.30715C5.40512 7.79239 5.66659 7.14144 5.66659 6.41671H3.66659ZM3.47615 6.89293C3.34646 7.02262 3.20852 7.08337 2.99992 7.08337V9.08337C3.72465 9.08337 4.3756 8.82191 4.89036 8.30715L3.47615 6.89293ZM2.99992 7.08337C2.79131 7.08337 2.65338 7.02262 2.52369 6.89293L1.10948 8.30715C1.62424 8.82191 2.27519 9.08337 2.99992 9.08337V7.08337ZM2.52369 6.89293C2.39401 6.76325 2.33325 6.62531 2.33325 6.41671H0.333252C0.333252 7.14144 0.59472 7.79239 1.10948 8.30715L2.52369 6.89293ZM2.33325 6.41671C2.33325 6.2081 2.39401 6.07017 2.52369 5.94048L1.10948 4.52627C0.59472 5.04103 0.333252 5.69198 0.333252 6.41671H2.33325ZM2.52369 5.94048C2.65338 5.8108 2.79131 5.75004 2.99992 5.75004V3.75004C2.27519 3.75004 1.62424 4.01151 1.10948 4.52627L2.52369 5.94048ZM2.99992 5.75004C3.09913 5.75004 3.1753 5.76435 3.23542 5.78464L3.87478 3.88959C3.5908 3.79378 3.29685 3.75004 2.99992 3.75004V5.75004ZM3.23542 5.78464C3.31336 5.81093 3.39232 5.85666 3.47615 5.94048L4.89036 4.52627C4.60326 4.23917 4.26346 4.02072 3.87478 3.88959L3.23542 5.78464ZM3.47615 5.94048C3.50287 5.9672 3.52518 5.99293 3.54392 6.01749L5.13406 4.80445C5.05903 4.7061 4.97752 4.61343 4.89036 4.52627L3.47615 5.94048ZM3.54392 6.01749C3.59894 6.08961 3.63288 6.16432 3.65095 6.25154L5.60936 5.8458C5.53034 5.46439 5.37017 5.11397 5.13406 4.80445L3.54392 6.01749ZM6.13325 9.39027C6.33005 9.04839 6.56537 8.7256 6.84091 8.42156L5.35893 7.07852C4.99002 7.48559 4.66978 7.92369 4.39993 8.39247L6.13325 9.39027ZM5.16352 10.6999C5.53782 10.2997 5.86156 9.86275 6.13348 9.38986L4.39969 8.39289C4.20495 8.73155 3.97312 9.04478 3.70298 9.33355L5.16352 10.6999ZM3.99829 11.973C4.39116 11.5411 4.78133 11.1149 5.1688 10.6942L3.69771 9.33923C3.3074 9.76299 2.91446 10.1923 2.51889 10.6271L3.99829 11.973ZM3.66659 12.8167C3.66659 12.492 3.76828 12.2255 3.99791 11.9734L2.51926 10.6267C1.95956 11.2412 1.66659 11.9859 1.66659 12.8167H3.66659ZM3.92405 13.5119C3.75044 13.3158 3.66659 13.1003 3.66659 12.8167H1.66659C1.66659 13.5776 1.92184 14.2674 2.42645 14.8375L3.92405 13.5119ZM4.43325 13.75C4.22762 13.75 4.07877 13.6871 3.92486 13.5128L2.42564 14.8366C2.94906 15.4294 3.63889 15.75 4.43325 15.75V13.75ZM6.04917 13.6142C5.51584 13.7047 4.9774 13.75 4.43325 13.75V15.75C5.0891 15.75 5.73955 15.6954 6.384 15.5859L6.04917 13.6142ZM7.99992 13.45C7.34407 13.45 6.69362 13.5047 6.04917 13.6142L6.384 15.5859C6.91733 15.4954 7.45577 15.45 7.99992 15.45V13.45ZM9.95067 13.6142C9.30622 13.5047 8.65577 13.45 7.99992 13.45V15.45C8.54407 15.45 9.08251 15.4954 9.61584 15.5859L9.95067 13.6142ZM11.5666 13.75C11.0224 13.75 10.484 13.7047 9.95067 13.6142L9.61584 15.5859C10.2603 15.6954 10.9107 15.75 11.5666 15.75V13.75ZM12.0761 13.5123C11.9216 13.6871 11.7723 13.75 11.5666 13.75V15.75C12.3609 15.75 13.0507 15.4294 13.5744 14.8371L12.0761 13.5123ZM12.3333 12.8167C12.3333 13.1007 12.2494 13.3163 12.076 13.5124L13.5745 14.837C14.0785 14.2669 14.3333 13.5772 14.3333 12.8167H12.3333ZM12.0022 11.973C12.2315 12.225 12.3333 12.4916 12.3333 12.8167H14.3333C14.3333 11.9862 14.0407 11.2417 13.4816 10.6271L12.0022 11.973ZM10.831 10.6942C11.2186 11.115 11.6092 11.5414 12.0026 11.9734L13.4812 10.6267C13.0853 10.192 12.6923 9.76285 12.3021 9.33923L10.831 10.6942ZM9.86016 9.36947C10.1347 9.84154 10.4569 10.2814 10.8256 10.6882L12.3076 9.34519C12.0319 9.04095 11.7927 8.7141 11.589 8.36394L9.86016 9.36947ZM9.14734 8.37521C9.41583 8.68205 9.65319 9.01295 9.85976 9.36878L11.5894 8.36464C11.3186 7.89824 11.0062 7.46247 10.6525 7.0582L9.14734 8.37521ZM8.56684 7.89228C8.77939 8.00955 8.96849 8.16406 9.13653 8.36265L10.6633 7.07076C10.3425 6.69158 9.96489 6.37942 9.533 6.14113L8.56684 7.89228ZM7.99992 7.75004C8.21342 7.75004 8.39659 7.79835 8.56684 7.89229L9.533 6.14113C9.0588 5.87951 8.54197 5.75004 7.99992 5.75004V7.75004ZM7.45564 7.89607C7.62265 7.79817 7.79778 7.75004 7.99992 7.75004V5.75004C7.4465 5.75004 6.92163 5.8908 6.4442 6.17068L7.45564 7.89607ZM6.8633 8.39598C7.03571 8.19223 7.23224 8.02703 7.45564 7.89607L6.4442 6.17068C6.02315 6.4175 5.65302 6.73007 5.33653 7.1041L6.8633 8.39598ZM4.73761 12.6463C5.12829 12.2169 5.51662 11.7926 5.90186 11.3744L4.43075 10.0194C4.04268 10.4408 3.65158 10.8681 3.25821 11.3005L4.73761 12.6463ZM5.89696 11.3796C6.32188 10.9249 6.69042 10.4273 7.00011 9.88882L5.26638 8.89173C5.03367 9.29637 4.75675 9.67051 4.43565 10.0141L5.89696 11.3796ZM7.62669 9.04192C7.72705 8.92332 7.83678 8.8318 7.96136 8.75877L6.94992 7.03337C6.6277 7.22226 6.34437 7.46115 6.09992 7.75004L7.62669 9.04192ZM7.96136 8.75877C7.96802 8.75486 7.97195 8.75309 7.97346 8.75245C7.97427 8.75211 7.97473 8.75194 7.97489 8.75189C7.97504 8.75183 7.97511 8.75181 7.97517 8.7518C7.97523 8.75178 7.97549 8.75171 7.97606 8.7516C7.97663 8.75149 7.9777 8.7513 7.97938 8.75108C7.98262 8.75067 7.9892 8.75004 7.99992 8.75004V6.75004C7.62209 6.75004 7.27209 6.84451 6.94992 7.03337L7.96136 8.75877ZM7.99992 8.75004C8.03004 8.75004 8.04608 8.7533 8.05338 8.75515C8.06036 8.75693 8.06943 8.75995 8.08376 8.76786L9.04992 7.01671C8.72778 6.83898 8.37779 6.75004 7.99992 6.75004V8.75004ZM8.08376 8.76786C8.18666 8.82463 8.28153 8.90031 8.37315 9.00859L9.89992 7.71671C9.65546 7.4278 9.37212 7.19447 9.04992 7.01671L8.08376 8.76786ZM8.37315 9.00859L8.3785 9.01492L9.90527 7.72303L9.89992 7.7167L8.37315 9.00859ZM8.38931 9.02748L8.39476 9.03371L9.89992 7.71671L9.89447 7.71048L8.38931 9.02748ZM8.39477 9.03372C8.62063 9.29184 8.82046 9.57031 8.99493 9.87084L10.7246 8.86671C10.4859 8.4556 10.211 8.07226 9.89992 7.71671L8.39477 9.03372ZM8.99534 9.87154C9.30529 10.4045 9.66931 10.9015 10.0846 11.3597L11.5666 10.0167C11.2444 9.66123 10.9633 9.27721 10.7242 8.86601L8.99534 9.87154ZM10.0873 11.3627L10.0927 11.3687L11.5693 10.0197L11.5639 10.0138L10.0873 11.3627ZM10.0955 11.3717C10.4818 11.7911 10.8711 12.2161 11.2633 12.6467L12.7419 11.3C12.3473 10.8667 11.9555 10.4389 11.5666 10.0167L10.0955 11.3717ZM11.2627 12.6461C11.3069 12.6947 11.3185 12.7216 11.322 12.7306C11.3253 12.7392 11.3333 12.7619 11.3333 12.8167H13.3333C13.3333 12.2395 13.1365 11.7341 12.7425 11.3007L11.2627 12.6461ZM11.3333 12.8167C11.3333 12.8384 11.3317 12.8495 11.3311 12.8526C11.3307 12.8553 11.3309 12.8527 11.3331 12.8469C11.3353 12.8411 11.3376 12.837 11.3384 12.8357C11.339 12.8347 11.3362 12.8394 11.3268 12.8501L12.8253 14.1747C13.1637 13.7918 13.3333 13.3392 13.3333 12.8167H11.3333ZM12.7644 5.78464C12.8245 5.76435 12.9007 5.75004 12.9999 5.75004V3.75004C12.703 3.75004 12.409 3.79378 12.1251 3.88959L12.7644 5.78464ZM12.9999 5.75004C13.2085 5.75004 13.3465 5.81079 13.4761 5.94048L14.8904 4.52627C14.3756 4.01151 13.7246 3.75004 12.9999 3.75004V5.75004ZM13.4761 5.94048C13.6058 6.07017 13.6666 6.2081 13.6666 6.41671H15.6666C15.6666 5.69198 15.4051 5.04103 14.8904 4.52627L13.4761 5.94048ZM13.6666 6.41671C13.6666 6.62531 13.6058 6.76325 13.4761 6.89293L14.8904 8.30715C15.4051 7.79239 15.6666 7.14143 15.6666 6.41671H13.6666ZM13.4761 6.89293C13.3465 7.02262 13.2085 7.08337 12.9999 7.08337V9.08337C13.7246 9.08337 14.3756 8.82191 14.8904 8.30715L13.4761 6.89293ZM12.9999 7.08337C12.7913 7.08337 12.6534 7.02262 12.5237 6.89293L11.1095 8.30715C11.6242 8.82191 12.2752 9.08337 12.9999 9.08337V7.08337ZM12.5237 6.89293C12.394 6.76325 12.3333 6.62531 12.3333 6.41671H10.3333C10.3333 7.14144 10.5947 7.79239 11.1095 8.30715L12.5237 6.89293ZM12.3333 6.41671C12.3333 6.35203 12.3394 6.29757 12.3489 6.25154L10.3905 5.84579C10.3514 6.03423 10.3333 6.22514 10.3333 6.41671H12.3333ZM12.3489 6.25153C12.367 6.16431 12.4009 6.08961 12.4559 6.01749L10.8658 4.80446C10.6297 5.11397 10.4695 5.4644 10.3905 5.84579L12.3489 6.25153ZM12.4559 6.01749C12.4747 5.99293 12.497 5.9672 12.5237 5.94048L11.1095 4.52627C11.0223 4.61343 10.9408 4.70611 10.8658 4.80445L12.4559 6.01749ZM12.5237 5.94048C12.6075 5.85666 12.6865 5.81093 12.7644 5.78464L12.1251 3.88959C11.7364 4.02072 11.3966 4.23917 11.1095 4.52627L12.5237 5.94048ZM2.99992 6.08337C2.9946 6.08337 3.0418 6.083 3.11077 6.11121C3.1816 6.14018 3.2226 6.17762 3.2308 6.18583L1.81658 7.60004C2.13833 7.92179 2.53256 8.08337 2.99992 8.08337V6.08337ZM2.76904 6.18583C2.77724 6.17762 2.81824 6.14018 2.88906 6.11121C2.95803 6.083 3.00523 6.08337 2.99992 6.08337V8.08337C3.46728 8.08337 3.86151 7.92179 4.18325 7.60004L2.76904 6.18583ZM2.66659 6.41671C2.66659 6.42202 2.66621 6.37482 2.69442 6.30585C2.72339 6.23503 2.76084 6.19403 2.76904 6.18583L4.18325 7.60004C4.505 7.2783 4.66659 6.88407 4.66659 6.41671H2.66659ZM2.76904 6.64759C2.76084 6.63938 2.72339 6.59838 2.69442 6.52756C2.66621 6.45859 2.66659 6.41139 2.66659 6.41671H4.66659C4.66659 5.94935 4.505 5.55512 4.18325 5.23337L2.76904 6.64759ZM2.99992 6.75004C3.00523 6.75004 2.95803 6.75041 2.88906 6.7222C2.81824 6.69324 2.77724 6.65579 2.76904 6.64759L4.18325 5.23337C3.86151 4.91163 3.46728 4.75004 2.99992 4.75004V6.75004ZM3.2308 6.64759C3.2226 6.65579 3.1816 6.69324 3.11077 6.7222C3.0418 6.75041 2.9946 6.75004 2.99992 6.75004V4.75004C2.53256 4.75004 2.13833 4.91163 1.81659 5.23337L3.2308 6.64759ZM3.33325 6.41671C3.33325 6.41139 3.33362 6.45859 3.30542 6.52756C3.27645 6.59838 3.239 6.63938 3.2308 6.64759L1.81659 5.23337C1.49484 5.55512 1.33325 5.94935 1.33325 6.41671H3.33325ZM3.2308 6.18583C3.239 6.19403 3.27645 6.23503 3.30542 6.30585C3.33362 6.37482 3.33325 6.42202 3.33325 6.41671H1.33325C1.33325 6.88407 1.49484 7.2783 1.81659 7.60004L3.2308 6.18583ZM5.99992 3.41671C5.9946 3.41671 6.04181 3.41634 6.11077 3.44454C6.1816 3.47351 6.2226 3.51096 6.2308 3.51916L4.81659 4.93337C5.13833 5.25512 5.53256 5.41671 5.99992 5.41671V3.41671ZM5.76904 3.51916C5.77724 3.51096 5.81824 3.47351 5.88906 3.44454C5.95803 3.41634 6.00523 3.41671 5.99992 3.41671V5.41671C6.46728 5.41671 6.86151 5.25512 7.18325 4.93337L5.76904 3.51916ZM5.66659 3.75004C5.66659 3.75536 5.66621 3.70815 5.69442 3.63918C5.72339 3.56836 5.76084 3.52736 5.76904 3.51916L7.18325 4.93337C7.505 4.61163 7.66659 4.2174 7.66659 3.75004H5.66659ZM5.76904 3.98092C5.76084 3.97272 5.72339 3.93172 5.69442 3.8609C5.66621 3.79193 5.66659 3.74473 5.66659 3.75004H7.66659C7.66659 3.28268 7.505 2.88845 7.18325 2.56671L5.76904 3.98092ZM5.99992 4.08337C6.00523 4.08337 5.95803 4.08375 5.88906 4.05554C5.81824 4.02657 5.77724 3.98912 5.76904 3.98092L7.18325 2.56671C6.86151 2.24496 6.46728 2.08337 5.99992 2.08337V4.08337ZM6.2308 3.98092C6.2226 3.98912 6.1816 4.02657 6.11077 4.05554C6.0418 4.08375 5.9946 4.08337 5.99992 4.08337V2.08337C5.53256 2.08337 5.13833 2.24496 4.81659 2.56671L6.2308 3.98092ZM6.33325 3.75004C6.33325 3.74473 6.33362 3.79193 6.30542 3.8609C6.27645 3.93172 6.239 3.97272 6.2308 3.98092L4.81658 2.56671C4.49484 2.88845 4.33325 3.28268 4.33325 3.75004H6.33325ZM6.2308 3.51916C6.239 3.52736 6.27645 3.56836 6.30542 3.63919C6.33362 3.70815 6.33325 3.75536 6.33325 3.75004H4.33325C4.33325 4.2174 4.49484 4.61163 4.81658 4.93337L6.2308 3.51916ZM9.99992 3.41671C9.9946 3.41671 10.0418 3.41634 10.1108 3.44454C10.1816 3.47351 10.2226 3.51096 10.2308 3.51916L8.81658 4.93337C9.13833 5.25512 9.53256 5.41671 9.99992 5.41671V3.41671ZM9.76904 3.51916C9.77724 3.51096 9.81824 3.47351 9.88906 3.44454C9.95803 3.41634 10.0052 3.41671 9.99992 3.41671V5.41671C10.4673 5.41671 10.8615 5.25512 11.1833 4.93337L9.76904 3.51916ZM9.66659 3.75004C9.66659 3.75535 9.66621 3.70815 9.69442 3.63918C9.72339 3.56836 9.76084 3.52736 9.76904 3.51916L11.1833 4.93337C11.505 4.61163 11.6666 4.2174 11.6666 3.75004H9.66659ZM9.76904 3.98092C9.76084 3.97272 9.72339 3.93172 9.69442 3.8609C9.66621 3.79193 9.66659 3.74473 9.66659 3.75004H11.6666C11.6666 3.28268 11.505 2.88845 11.1833 2.56671L9.76904 3.98092ZM9.99992 4.08337C10.0052 4.08337 9.95803 4.08375 9.88906 4.05554C9.81824 4.02657 9.77724 3.98912 9.76904 3.98092L11.1833 2.56671C10.8615 2.24496 10.4673 2.08337 9.99992 2.08337V4.08337ZM10.2308 3.98092C10.2226 3.98912 10.1816 4.02657 10.1108 4.05554C10.0418 4.08375 9.9946 4.08337 9.99992 4.08337V2.08337C9.53256 2.08337 9.13833 2.24496 8.81658 2.56671L10.2308 3.98092ZM10.3333 3.75004C10.3333 3.74473 10.3336 3.79193 10.3054 3.8609C10.2764 3.93172 10.239 3.97272 10.2308 3.98092L8.81659 2.56671C8.49484 2.88845 8.33325 3.28268 8.33325 3.75004H10.3333ZM10.2308 3.51916C10.239 3.52736 10.2764 3.56836 10.3054 3.63918C10.3336 3.70815 10.3333 3.75536 10.3333 3.75004H8.33325C8.33325 4.2174 8.49484 4.61163 8.81659 4.93337L10.2308 3.51916ZM12.9999 6.08337C12.9946 6.08337 13.0418 6.083 13.1108 6.11121C13.1816 6.14018 13.2226 6.17762 13.2308 6.18583L11.8166 7.60004C12.1383 7.92179 12.5326 8.08337 12.9999 8.08337V6.08337ZM12.769 6.18583C12.7772 6.17762 12.8182 6.14018 12.8891 6.11121C12.958 6.083 13.0052 6.08337 12.9999 6.08337V8.08337C13.4673 8.08337 13.8615 7.92179 14.1833 7.60004L12.769 6.18583ZM12.6666 6.41671C12.6666 6.42202 12.6662 6.37482 12.6944 6.30585C12.7234 6.23503 12.7608 6.19403 12.769 6.18583L14.1833 7.60004C14.505 7.2783 14.6666 6.88407 14.6666 6.41671H12.6666ZM12.769 6.64759C12.7608 6.63938 12.7234 6.59838 12.6944 6.52756C12.6662 6.45859 12.6666 6.41139 12.6666 6.41671H14.6666C14.6666 5.94935 14.505 5.55512 14.1833 5.23337L12.769 6.64759ZM12.9999 6.75004C13.0052 6.75004 12.958 6.75041 12.8891 6.7222C12.8182 6.69324 12.7772 6.65579 12.769 6.64759L14.1833 5.23338C13.8615 4.91163 13.4673 4.75004 12.9999 4.75004V6.75004ZM13.2308 6.64759C13.2226 6.65579 13.1816 6.69324 13.1108 6.7222C13.0418 6.75041 12.9946 6.75004 12.9999 6.75004V4.75004C12.5326 4.75004 12.1383 4.91163 11.8166 5.23338L13.2308 6.64759ZM13.3333 6.41671C13.3333 6.41139 13.3336 6.4586 13.3054 6.52756C13.2764 6.59839 13.239 6.63939 13.2308 6.64759L11.8166 5.23337C11.4948 5.55512 11.3333 5.94935 11.3333 6.41671H13.3333ZM13.2308 6.18583C13.239 6.19403 13.2764 6.23503 13.3054 6.30585C13.3336 6.37482 13.3333 6.42202 13.3333 6.41671H11.3333C11.3333 6.88407 11.4948 7.2783 11.8166 7.60004L13.2308 6.18583ZM6.99991 9.88917C7.16017 9.61077 7.36527 9.35087 7.62668 9.04193L6.09993 7.75003C5.82555 8.07429 5.52169 8.44823 5.26659 8.89137L6.99991 9.88917Z" fill="#192B3E" mask="url(#path-1-inside-1_949_8542)"/>
</g>
</svg>
